<svg width="24" height="24" xmlns="http://www.w3.org/2000/svg" viewBox="0 0 64 64" shape-rendering="geometricPrecision"><path d="M20 12H44V20H40L44 32 40 40H36V46H28V40H24L20 32 24 20H20Z" fill="#a6b8bd" stroke="#182833" stroke-width="2" stroke-linejoin="miter"/><path d="M24 18H40L46 24V38L40 44H24L18 38V24Z" fill="#d9e6e8" stroke="#182833" stroke-width="2" stroke-linejoin="miter"/><path d="M32 24 38 28 36 36H28L26 28Z" fill="#e8b65a" stroke="#182833" stroke-width="2" stroke-linejoin="miter"/><rect x="24" y="22" width="4" height="2" fill="#ffffff"/><path d="M18 48H46V60H18Z" fill="#596975" stroke="#182833" stroke-width="2" stroke-linejoin="miter"/><rect x="20" y="50" width="24" height="2" fill="#d9e6e8"/><rect x="22" y="52" width="21" height="2" fill="#395e9e"/><rect x="22" y="54" width="21" height="2" fill="#f8f4e8"/><rect x="22" y="56" width="21" height="2" fill="#395e9e"/><rect x="22" y="52" width="6" height="6" fill="#395e9e"/><rect x="24" y="52" width="2" height="6" fill="#f8f4e8"/><rect x="22" y="54" width="6" height="2" fill="#f8f4e8"/></svg>